# xmcd
#
# Track frame offsets: 
#        150
#        11018
#        24238
#        45887
#        59950
#        72502
#        85286
#        97773
#        111001
#        123475
#        134765
#        144504
#
# Disc length: 2121 seconds
#
# Revision: 0
# Processed by: cddbd v1.5.2PL0 Copyright (c) Steve Scherf et al.
# Submitted via: ExactAudioCopy v1.0b3
#
DISCID=a508470c
DTITLE=King Curtis - Instant Groove
DYEAR=1969
DGENRE=Soul
TTITLE0=Instant Groove
TTITLE1=Hey Joe
TTITLE2=Foot Pattin'
TTITLE3=Wichita Lineman
TTITLE4=Games People Play
TTITLE5=Sing A Simple Song
TTITLE6=The Weight
TTITLE7=LA Jeanne
TTITLE8=Little Green Apples
TTITLE9=Somewhere
TTITLE10=Hold Me Tight
TTITLE11=Hey Jude
EXTD=
EXTT0=
EXTT1=
EXTT2=
EXTT3=
EXTT4=
EXTT5=
EXTT6=
EXTT7=
EXTT8=
EXTT9=
EXTT10=
EXTT11=
PLAYORDER=
